<mxfile host="app.diagrams.net" modified="2024-01-29T03:27:16.408Z" agent="Mozilla/5.0 (Windows NT 10.0; Win64; x64) AppleWebKit/537.36 (KHTML, like Gecko) Chrome/120.0.0.0 Safari/537.36 Edg/120.0.0.0" etag="DczO9oci4Zg7s5dkk_4h" version="21.8.2" type="github">
  <diagram name="第 1 页" id="fwZYbGv6xtQUt4e5_MYE">
    <mxGraphModel dx="1426" dy="785" grid="1" gridSize="10" guides="1" tooltips="1" connect="1" arrows="1" fold="1" page="1" pageScale="1" pageWidth="827" pageHeight="1169" math="0" shadow="0">
      <root>
        <mxCell id="0" />
        <mxCell id="1" parent="0" />
        <mxCell id="D9aaZtaCVgC5ulMcn0mg-1" value="为避免混淆，db.isEnableShareViewShortLink = false" style="text;html=1;align=center;verticalAlign=middle;resizable=0;points=[];autosize=1;strokeColor=none;fillColor=none;" vertex="1" parent="1">
          <mxGeometry width="310" height="30" as="geometry" />
        </mxCell>
        <mxCell id="D9aaZtaCVgC5ulMcn0mg-2" value="线上表单分享视图模式" style="text;html=1;align=center;verticalAlign=middle;resizable=0;points=[];autosize=1;strokeColor=none;fillColor=none;fontColor=#FF6666;fontSize=18;" vertex="1" parent="1">
          <mxGeometry x="290" y="45" width="200" height="40" as="geometry" />
        </mxCell>
      </root>
    </mxGraphModel>
  </diagram>
</mxfile>
